<?xml version="1.0" encoding="utf-8"?>
<!-- Generator: Adobe Illustrator 24.1.2, SVG Export Plug-In . SVG Version: 6.00 Build 0)  -->
<svg version="1.1" id="Camada_1" xmlns="http://www.w3.org/2000/svg" xmlns:xlink="http://www.w3.org/1999/xlink" x="0px" y="0px"
	 viewBox="0 0 752 1080" style="enable-background:new 0 0 752 1080;" xml:space="preserve">
<style type="text/css">
	.st0{display:none;}
	.st1{fill:none;stroke:#30C6F0;stroke-width:3;stroke-miterlimit:10;}
	.st2{fill:#30C6F0;}
	.st3{fill:none;stroke:#30C6F0;stroke-width:3;stroke-linecap:round;stroke-linejoin:round;stroke-miterlimit:10;}
	.st4{fill:none;stroke:#30C6F0;stroke-width:3;stroke-miterlimit:9.9999;}
	.st5{fill:#E2DFE6;}
	.st6{fill:#606060;}
</style>
<g id="Camada_2_1_" class="st0">
	
		<image style="display:inline;overflow:visible;enable-background:new    ;" width="1440" height="1080" xlink:href="53A1D1B2B3352779.jpeg" >
	</image>
</g>
<g id="Camada_1_1_">
	<g>
		<g>
			<path class="st1" d="M531.6,538.2l-36.5-32.1l-0.5,0.5c-27.6-18-64.9-13.5-87.3,12c-22.4,25.5-22,63.1-0.6,88.1l-0.5,0.5
				l121.4,106.5"/>
			<path class="st1" d="M56.8,22.4L24.7,58.9l0.5,0.5c-18,27.6-13.5,64.9,12,87.3s63.1,22.1,88.1,0.6l0.5,0.5L232.3,26.4"/>
			<g>
				<g>
					<circle class="st2" cx="561" cy="371.4" r="4.5"/>
					<circle class="st2" cx="576.4" cy="356.6" r="4.5"/>
					<circle class="st2" cx="591.7" cy="341.9" r="4.5"/>
					<circle class="st2" cx="607" cy="327.1" r="4.5"/>
					<circle class="st2" cx="622.3" cy="312.3" r="4.5"/>
					<circle class="st2" cx="637.6" cy="297.5" r="4.5"/>
				</g>
				<g>
					<circle class="st2" cx="576.9" cy="387.3" r="4.5"/>
					<circle class="st2" cx="592.2" cy="372.5" r="4.5"/>
					<circle class="st2" cx="607.5" cy="357.7" r="4.5"/>
					<circle class="st2" cx="622.8" cy="342.9" r="4.5"/>
					<circle class="st2" cx="638.1" cy="328.1" r="4.5"/>
					<circle class="st2" cx="653.5" cy="313.3" r="4.5"/>
				</g>
				<g>
					<circle class="st2" cx="592.7" cy="403.1" r="4.5"/>
					<circle class="st2" cx="608" cy="388.3" r="4.5"/>
					<circle class="st2" cx="623.3" cy="373.5" r="4.5"/>
					<circle class="st2" cx="638.7" cy="358.7" r="4.5"/>
					<circle class="st2" cx="654" cy="344" r="4.5"/>
					<circle class="st2" cx="669.3" cy="329.2" r="4.5"/>
				</g>
				<g>
					<circle class="st2" cx="608.6" cy="418.9" r="4.5"/>
					<circle class="st2" cx="623.9" cy="404.1" r="4.5"/>
					<circle class="st2" cx="639.2" cy="389.4" r="4.5"/>
					<circle class="st2" cx="654.5" cy="374.6" r="4.5"/>
					<circle class="st2" cx="669.8" cy="359.8" r="4.5"/>
					<circle class="st2" cx="685.1" cy="345" r="4.5"/>
				</g>
				<g>
					<circle class="st2" cx="624.4" cy="434.8" r="4.5"/>
					<circle class="st2" cx="639.7" cy="420" r="4.5"/>
					<circle class="st2" cx="655" cy="405.2" r="4.5"/>
					<circle class="st2" cx="670.3" cy="390.4" r="4.5"/>
					<circle class="st2" cx="685.7" cy="375.6" r="4.5"/>
					<circle class="st2" cx="701" cy="360.9" r="4.5"/>
				</g>
				<g>
					<circle class="st2" cx="640.2" cy="450.6" r="4.5"/>
					<circle class="st2" cx="655.6" cy="435.8" r="4.5"/>
					<circle class="st2" cx="670.9" cy="421" r="4.5"/>
					<circle class="st2" cx="686.2" cy="406.3" r="4.5"/>
					<circle class="st2" cx="701.5" cy="391.5" r="4.5"/>
					<circle class="st2" cx="716.8" cy="376.7" r="4.5"/>
				</g>
			</g>
			<g>
				<g>
					<circle class="st2" cx="689.9" cy="645.7" r="4.5"/>
					<circle class="st2" cx="705.2" cy="630.9" r="4.5"/>
				</g>
				<g>
					<circle class="st2" cx="705.8" cy="661.5" r="4.5"/>
					<circle class="st2" cx="721.1" cy="646.7" r="4.5"/>
				</g>
			</g>
			<g>
				<g>
					<circle class="st2" cx="176.7" cy="704.8" r="4.5"/>
					<circle class="st2" cx="192" cy="690" r="4.5"/>
					<circle class="st2" cx="207.3" cy="675.3" r="4.5"/>
					<circle class="st2" cx="222.6" cy="660.5" r="4.5"/>
					<circle class="st2" cx="237.9" cy="645.7" r="4.5"/>
					<circle class="st2" cx="253.2" cy="630.9" r="4.5"/>
				</g>
				<g>
					<circle class="st2" cx="192.5" cy="720.7" r="4.5"/>
					<circle class="st2" cx="207.8" cy="705.9" r="4.5"/>
					<circle class="st2" cx="223.1" cy="691.1" r="4.5"/>
					<circle class="st2" cx="238.4" cy="676.3" r="4.5"/>
					<circle class="st2" cx="253.8" cy="661.5" r="4.5"/>
					<circle class="st2" cx="269.1" cy="646.8" r="4.5"/>
				</g>
			</g>
			<g>
				<g>
					<circle class="st2" cx="437.9" cy="162.2" r="4.5"/>
					<circle class="st2" cx="452.7" cy="177.5" r="4.5"/>
					<circle class="st2" cx="467.5" cy="192.8" r="4.5"/>
					<circle class="st2" cx="482.2" cy="208.1" r="4.5"/>
				</g>
				<g>
					<circle class="st2" cx="422" cy="178" r="4.5"/>
					<circle class="st2" cx="436.8" cy="193.4" r="4.5"/>
					<circle class="st2" cx="451.6" cy="208.7" r="4.5"/>
					<circle class="st2" cx="466.4" cy="224" r="4.5"/>
				</g>
			</g>
			<g>
				<g>
					<circle class="st2" cx="198.7" cy="967.5" r="4.5"/>
					<circle class="st2" cx="214" cy="952.7" r="4.5"/>
					<circle class="st2" cx="229.3" cy="937.9" r="4.5"/>
					<circle class="st2" cx="244.6" cy="923.1" r="4.5"/>
					
						<ellipse transform="matrix(7.088882e-02 -0.9975 0.9975 7.088882e-02 -664.5895 1103.2235)" class="st2" cx="259.9" cy="908.4" rx="4.5" ry="4.5"/>
					<circle class="st2" cx="275.2" cy="893.6" r="4.5"/>
				</g>
				<g>
					<circle class="st2" cx="214.5" cy="983.3" r="4.5"/>
					<circle class="st2" cx="229.8" cy="968.5" r="4.5"/>
					<circle class="st2" cx="245.1" cy="953.8" r="4.5"/>
					
						<ellipse transform="matrix(7.088882e-02 -0.9975 0.9975 7.088882e-02 -694.64 1132.2015)" class="st2" cx="260.4" cy="939" rx="4.5" ry="4.5"/>
					<circle class="st2" cx="275.8" cy="924.2" r="4.5"/>
					<circle class="st2" cx="291.1" cy="909.4" r="4.5"/>
				</g>
				<g>
					<circle class="st2" cx="230.3" cy="999.2" r="4.5"/>
					<circle class="st2" cx="245.7" cy="984.4" r="4.5"/>
					<circle class="st2" cx="261" cy="969.6" r="4.5"/>
					<circle class="st2" cx="276.3" cy="954.8" r="4.5"/>
					<circle class="st2" cx="291.6" cy="940" r="4.5"/>
					<circle class="st2" cx="306.9" cy="925.3" r="4.5"/>
				</g>
				<g>
					<circle class="st2" cx="246.2" cy="1015" r="4.5"/>
					<circle class="st2" cx="261.5" cy="1000.2" r="4.5"/>
					<circle class="st2" cx="276.8" cy="985.5" r="4.5"/>
					<circle class="st2" cx="292.1" cy="970.7" r="4.5"/>
					<circle class="st2" cx="307.4" cy="955.9" r="4.5"/>
					<circle class="st2" cx="322.8" cy="941.1" r="4.5"/>
				</g>
				<g>
					<circle class="st2" cx="262" cy="1030.9" r="4.5"/>
					<circle class="st2" cx="277.3" cy="1016.1" r="4.5"/>
					<circle class="st2" cx="292.6" cy="1001.3" r="4.5"/>
					<circle class="st2" cx="308" cy="986.5" r="4.5"/>
					<circle class="st2" cx="323.3" cy="971.7" r="4.5"/>
					<circle class="st2" cx="338.6" cy="956.9" r="4.5"/>
				</g>
				<g>
					<circle class="st2" cx="277.9" cy="1046.7" r="4.5"/>
					<circle class="st2" cx="293.2" cy="1031.9" r="4.5"/>
					<circle class="st2" cx="308.5" cy="1017.1" r="4.5"/>
					<circle class="st2" cx="323.8" cy="1002.3" r="4.5"/>
					<circle class="st2" cx="339.1" cy="987.6" r="4.5"/>
					<circle class="st2" cx="354.4" cy="972.8" r="4.5"/>
				</g>
			</g>
			
				<rect x="561.8" y="544.9" transform="matrix(0.7071 -0.7071 0.7071 0.7071 -203.5634 624.5692)" class="st2" width="180.7" height="26.1"/>
			
				<rect x="74.1" y="229.5" transform="matrix(0.7071 -0.7071 0.7071 0.7071 -200.6712 155.2906)" class="st2" width="26.1" height="180.7"/>
			<g>
				<path class="st1" d="M590.1,139.9c-1.5,9.9,1.6,20.5,9.2,28.1c7.7,7.7,18.2,10.7,28.1,9.2"/>
				<path class="st1" d="M664.6,214.7c1.5-9.9-1.6-20.5-9.2-28.1c-7.7-7.7-18.2-10.7-28.1-9.2"/>
				<path class="st1" d="M664.7,214.5c-1.5,9.9,1.6,20.5,9.2,28.1c7.7,7.7,18.2,10.7,28.1,9.2"/>
				<path class="st1" d="M515.5,65.3c-1.5,9.9,1.6,20.5,9.2,28.1c7.7,7.7,18.2,10.7,28.1,9.2"/>
				<path class="st1" d="M590,140.1c1.5-9.9-1.6-20.5-9.2-28.1c-7.7-7.7-18.2-10.7-28.1-9.2"/>
			</g>
			<g>
				<path class="st1" d="M104.9,477.1c-1.5,10,1.6,20.5,9.2,28.1c7.7,7.7,18.2,10.7,28.1,9.2"/>
				<path class="st1" d="M179.5,551.9c1.5-10-1.6-20.5-9.2-28.1c-7.7-7.7-18.2-10.7-28.1-9.2"/>
				<path class="st1" d="M179.6,551.7c-1.5,10,1.6,20.5,9.2,28.1c7.7,7.7,18.2,10.7,28.1,9.2"/>
				<path class="st1" d="M30.3,402.5c-1.5,10,1.6,20.5,9.2,28.1c7.7,7.7,18.2,10.7,28.1,9.2"/>
				<path class="st1" d="M104.9,477.3c1.5-10-1.6-20.5-9.2-28.1c-7.7-7.7-18.2-10.7-28.1-9.2"/>
			</g>
			<g>
				<circle class="st1" cx="718.9" cy="30.7" r="10.1"/>
				<circle class="st1" cx="692.9" cy="56.7" r="10.1"/>
				<circle class="st1" cx="666.8" cy="82.8" r="10.1"/>
			</g>
			<g>
				<circle class="st1" cx="263" cy="551.3" r="10.1"/>
				<circle class="st1" cx="289.1" cy="577.4" r="10.1"/>
				<circle class="st1" cx="315.1" cy="603.4" r="10.1"/>
			</g>
			<g>
				<line class="st3" x1="632.3" y1="834.2" x2="694.3" y2="895.9"/>
				<line class="st3" x1="593.2" y1="824.5" x2="704" y2="934.9"/>
				<line class="st3" x1="565.9" y1="826.5" x2="702.8" y2="962.9"/>
				<line class="st3" x1="542.7" y1="832.6" x2="696.3" y2="985.7"/>
				<line class="st3" x1="524" y1="843.1" x2="685.3" y2="1004"/>
				<line class="st3" x1="506" y1="854.5" x2="674.7" y2="1022.6"/>
				<g>
					<line class="st3" x1="532.9" y1="1058.4" x2="471" y2="996.7"/>
					<line class="st3" x1="572" y1="1068.1" x2="461.2" y2="957.7"/>
					<line class="st3" x1="599.3" y1="1066.1" x2="462.4" y2="929.6"/>
					<line class="st3" x1="622.5" y1="1060" x2="468.9" y2="906.9"/>
					<line class="st3" x1="641.3" y1="1049.4" x2="479.9" y2="888.6"/>
					<line class="st3" x1="659.2" y1="1038.1" x2="490.5" y2="869.9"/>
				</g>
			</g>
			<g>
				<line class="st3" x1="199" y1="280.3" x2="171.8" y2="253.2"/>
				<line class="st3" x1="228.2" y1="283.7" x2="168.1" y2="223.8"/>
				<line class="st3" x1="246.6" y1="276.4" x2="175.8" y2="205.8"/>
				<g>
					<line class="st3" x1="237.5" y1="187.1" x2="264.7" y2="214.2"/>
					<line class="st3" x1="208.3" y1="183.7" x2="268.4" y2="243.6"/>
					<line class="st3" x1="189.9" y1="191" x2="260.7" y2="261.6"/>
				</g>
			</g>
			<g>
				<line class="st3" x1="54.1" y1="861.6" x2="26.9" y2="834.5"/>
				<line class="st3" x1="83.2" y1="865" x2="23.1" y2="805.1"/>
				<line class="st3" x1="101.7" y1="857.7" x2="30.8" y2="787.1"/>
				<g>
					<line class="st3" x1="92.5" y1="768.4" x2="119.7" y2="795.5"/>
					<line class="st3" x1="63.4" y1="765" x2="123.5" y2="824.9"/>
					<line class="st3" x1="44.9" y1="772.3" x2="115.8" y2="842.9"/>
				</g>
			</g>
			
				<rect x="539.3" y="221.3" transform="matrix(0.7071 -0.7071 0.7071 0.7071 -7.5349 467.8182)" class="st2" width="43.3" height="43.3"/>
			
				<rect x="203.5" y="780.4" transform="matrix(0.7071 -0.7071 0.7071 0.7071 -501.2187 394.1526)" class="st2" width="43.3" height="43.3"/>
			
				<rect x="339.4" y="741.5" transform="matrix(0.7071 -0.7071 0.7071 0.7071 -441.5101 497.1361)" class="st4" width="80" height="80"/>
			
				<rect x="65.4" y="559.5" transform="matrix(0.7071 -0.7071 0.7071 0.7071 -418.982 242.4369)" class="st4" width="35.6" height="134.9"/>
			
				<rect x="651.1" y="686.2" transform="matrix(0.7071 -0.7071 0.7071 0.7071 -331.0986 691.2623)" class="st4" width="35.6" height="118.2"/>
			<rect x="306.8" y="33" transform="matrix(0.7071 -0.7071 0.7071 0.7071 49.9375 266.6216)" class="st4" width="80" height="80"/>
			<g>
				<line class="st3" x1="292" y1="495.5" x2="458.4" y2="329.2"/>
				<line class="st3" x1="272.2" y1="475.6" x2="438.5" y2="309.3"/>
				<line class="st3" x1="252.3" y1="455.8" x2="418.6" y2="289.5"/>
				<line class="st3" x1="232.4" y1="435.9" x2="398.8" y2="269.6"/>
				<line class="st3" x1="212.6" y1="416" x2="378.9" y2="249.7"/>
			</g>
			<circle class="st1" cx="51.7" cy="1015.6" r="28.8"/>
		</g>
		<g>
			<circle class="st5" cx="751" cy="1" r="1"/>
			<circle class="st5" cx="751" cy="1079" r="1"/>
		</g>
		<g>
			<circle class="st5" cx="1" cy="1" r="1"/>
			<circle class="st5" cx="1" cy="1079" r="1"/>
		</g>
	</g>
</g>
<rect x="-227" y="439.3" class="st6" width="1" height="1"/>
</svg>
