<?xml version="1.0" encoding="utf-8"?>
<!-- Generator: Adobe Illustrator 24.1.2, SVG Export Plug-In . SVG Version: 6.00 Build 0)  -->
<svg version="1.1" id="Camada_1" xmlns="http://www.w3.org/2000/svg" xmlns:xlink="http://www.w3.org/1999/xlink" x="0px" y="0px"
	 viewBox="0 0 1621 110" style="enable-background:new 0 0 1621 110;" xml:space="preserve">
<style type="text/css">
	.st0{fill:none;}
</style>
<path class="st0" d="M0,0"/>
<polygon points="1222.5,8.2 1141.5,55 1141.5,55 1060.5,8.2 979.6,55 979.6,55 898.6,8.2 817.6,55 817.6,55 736.7,8.2 655.7,55 
	655.7,55 574.8,8.2 493.8,55 493.8,55 412.8,8.2 331.9,55 331.9,55 250.9,8.2 169.9,55 169.9,55 89,8.2 8,55 8,101.8 89,55 
	169.9,101.8 250.9,55 331.9,101.8 412.8,55 493.8,101.8 574.8,55 655.7,101.8 736.7,55 817.6,101.8 898.6,55 979.6,101.8 1060.5,55 
	1141.5,101.8 1222.5,55 1303.4,101.8 1303.4,55 "/>
</svg>
